HIERARCHY
ROOT Root
{
  OFFSET 0.0 0.0 0.0
  CHANNELS 6 Xposition Yposition Zposition Zrotation Yrotation Xrotation
  JOINT Hips
  {
    OFFSET 0.0 100.0 0.0
    CHANNELS 6 Xposition Yposition Zposition Zrotation Yrotation Xrotation
    JOINT Spine1
    {
      OFFSET 5.003913 -0.037094 -0.013727
      CHANNELS 3 Zrotation Yrotation Xrotation
      JOINT Spine2
      {
        OFFSET 7.125363 -1e-06 0.0
        CHANNELS 3 Zrotation Yrotation Xrotation
        JOINT Chest
        {
          OFFSET 7.594027 1e-06 0.0
          CHANNELS 3 Zrotation Yrotation Xrotation
          JOINT Neck1
          {
            OFFSET 26.313086 -0.460272 -0.181672
            CHANNELS 3 Zrotation Yrotation Xrotation
            JOINT Neck2
            {
              OFFSET 8.045911 0.0 0.0
              CHANNELS 3 Zrotation Yrotation Xrotation
              JOINT Head
              {
                OFFSET 6.432774 0.0 0.0
                CHANNELS 3 Zrotation Yrotation Xrotation
                JOINT HeadEnd
                {
                  OFFSET 16.169773 0.06451 0.00362
                  CHANNELS 3 Zrotation Yrotation Xrotation
                }
                JOINT Jaw
                {
                  OFFSET 0.108741 3.12938 0.002639
                  CHANNELS 3 Zrotation Yrotation Xrotation
                }
                JOINT LeftEye
                {
                  OFFSET 4.45173 8.166359 3.206392
                  CHANNELS 3 Zrotation Yrotation Xrotation
                }
                JOINT RightEye
                {
                  OFFSET 4.436895 8.135758 -3.222429
                  CHANNELS 3 Zrotation Yrotation Xrotation
                }
              }
            }
          }
          JOINT LeftShoulder
          {
            OFFSET 23.218927 5.195579 1.621656
            CHANNELS 3 Zrotation Yrotation Xrotation
            JOINT LeftArm
            {
              OFFSET 15.902118 2e-06 -2e-06
              CHANNELS 3 Zrotation Yrotation Xrotation
              JOINT LeftForeArm
              {
                OFFSET 28.739307 0.0 -1e-06
                CHANNELS 3 Zrotation Yrotation Xrotation
                JOINT LeftHand
                {
                  OFFSET 27.093981 -4e-06 0.0
                  CHANNELS 3 Zrotation Yrotation Xrotation
                  JOINT LeftHandThumb1
                  {
                    OFFSET 2.276781 3.380274 0.83384
                    CHANNELS 3 Zrotation Yrotation Xrotation
                    JOINT LeftHandThumb2
                    {
                      OFFSET 4.705309 -1e-06 -1e-06
                      CHANNELS 3 Zrotation Yrotation Xrotation
                      JOINT LeftHandThumb3
                      {
                        OFFSET 2.798515 0.0 3e-06
                        CHANNELS 3 Zrotation Yrotation Xrotation
                        JOINT LeftHandThumbEnd
                        {
                          OFFSET 3.180793 4e-06 -4e-06
                          CHANNELS 3 Zrotation Yrotation Xrotation
                        }
                      }
                    }
                  }
                  JOINT LeftHandIndex1
                  {
                    OFFSET 3.247786 2.352677 0.137192
                    CHANNELS 3 Zrotation Yrotation Xrotation
                    JOINT LeftHandIndex2
                    {
                      OFFSET 6.367095 1e-06 0.0
                      CHANNELS 3 Zrotation Yrotation Xrotation
                      JOINT LeftHandIndex3
                      {
                        OFFSET 3.662364 0.0 0.0
                        CHANNELS 3 Zrotation Yrotation Xrotation
                        JOINT LeftHandIndex4
                        {
                          OFFSET 2.329242 4e-06 -4e-06
                          CHANNELS 3 Zrotation Yrotation Xrotation
                          JOINT LeftHandIndexEnd
                          {
                            OFFSET 2.767823 1e-06 0.0
                            CHANNELS 3 Zrotation Yrotation Xrotation
                          }
                        }
                      }
                    }
                  }
                  JOINT LeftHandMiddle1
                  {
                    OFFSET 3.163612 0.945023 -0.406112
                    CHANNELS 3 Zrotation Yrotation Xrotation
                    JOINT LeftHandMiddle2
                    {
                      OFFSET 6.276789 3e-06 0.0
                      CHANNELS 3 Zrotation Yrotation Xrotation
                      JOINT LeftHandMiddle3
                      {
                        OFFSET 4.35652 -1e-06 4e-06
                        CHANNELS 3 Zrotation Yrotation Xrotation
                        JOINT LeftHandMiddle4
                        {
                          OFFSET 2.996877 0.0 8e-06
                          CHANNELS 3 Zrotation Yrotation Xrotation
                          JOINT LeftHandMiddleEnd
                          {
                            OFFSET 2.323256 3e-06 -4e-06
                            CHANNELS 3 Zrotation Yrotation Xrotation
                          }
                        }
                      }
                    }
                  }
                  JOINT LeftHandRing1
                  {
                    OFFSET 2.882606 -0.309162 0.107445
                    CHANNELS 3 Zrotation Yrotation Xrotation
                    JOINT LeftHandRing2
                    {
                      OFFSET 6.033198 0.0 4e-06
                      CHANNELS 3 Zrotation Yrotation Xrotation
                      JOINT LeftHandRing3
                      {
                        OFFSET 4.350578 3e-06 0.0
                        CHANNELS 3 Zrotation Yrotation Xrotation
                        JOINT LeftHandRing4
                        {
                          OFFSET 2.651321 2e-06 -7e-06
                          CHANNELS 3 Zrotation Yrotation Xrotation
                          JOINT LeftHandRingEnd
                          {
                            OFFSET 1.937663 1e-06 -4e-06
                            CHANNELS 3 Zrotation Yrotation Xrotation
                          }
                        }
                      }
                    }
                  }
                  JOINT LeftHandPinky1
                  {
                    OFFSET 2.865315 -1.525436 0.575687
                    CHANNELS 3 Zrotation Yrotation Xrotation
                    JOINT LeftHandPinky2
                    {
                      OFFSET 5.54936 1e-06 -8e-06
                      CHANNELS 3 Zrotation Yrotation Xrotation
                      JOINT LeftHandPinky3
                      {
                        OFFSET 3.070974 0.0 -4e-06
                        CHANNELS 3 Zrotation Yrotation Xrotation
                        JOINT LeftHandPinky4
                        {
                          OFFSET 1.549672 1e-06 0.0
                          CHANNELS 3 Zrotation Yrotation Xrotation
                          JOINT LeftHandPinkyEnd
                          {
                            OFFSET 1.952123 0.0 0.0
                            CHANNELS 3 Zrotation Yrotation Xrotation
                          }
                        }
                      }
                    }
                  }
                }
              }
            }
          }
          JOINT RightShoulder
          {
            OFFSET 23.161716 5.296122 -1.380114
            CHANNELS 3 Zrotation Yrotation Xrotation
            JOINT RightArm
            {
              OFFSET -16.027195 -2e-06 1.1e-05
              CHANNELS 3 Zrotation Yrotation Xrotation
              JOINT RightForeArm
              {
                OFFSET -28.736639 4e-06 2e-06
                CHANNELS 3 Zrotation Yrotation Xrotation
                JOINT RightHand
                {
                  OFFSET -27.133619 6e-06 0.0
                  CHANNELS 3 Zrotation Yrotation Xrotation
                  JOINT RightHandThumb1
                  {
                    OFFSET -2.274328 -3.351035 -0.83067
                    CHANNELS 3 Zrotation Yrotation Xrotation
                    JOINT RightHandThumb2
                    {
                      OFFSET -4.703594 -3e-06 2e-06
                      CHANNELS 3 Zrotation Yrotation Xrotation
                      JOINT RightHandThumb3
                      {
                        OFFSET -2.794935 -4e-06 -3e-06
                        CHANNELS 3 Zrotation Yrotation Xrotation
                        JOINT RightHandThumbEnd
                        {
                          OFFSET -3.183852 4e-06 1e-06
                          CHANNELS 3 Zrotation Yrotation Xrotation
                        }
                      }
                    }
                  }
                  JOINT RightHandIndex1
                  {
                    OFFSET -3.253496 -2.33755 -0.127667
                    CHANNELS 3 Zrotation Yrotation Xrotation
                    JOINT RightHandIndex2
                    {
                      OFFSET -6.344434 0.0 0.0
                      CHANNELS 3 Zrotation Yrotation Xrotation
                      JOINT RightHandIndex3
                      {
                        OFFSET -3.654871 0.0 -8e-06
                        CHANNELS 3 Zrotation Yrotation Xrotation
                        JOINT RightHandIndex4
                        {
                          OFFSET -2.327586 -1e-06 0.0
                          CHANNELS 3 Zrotation Yrotation Xrotation
                          JOINT RightHandIndexEnd
                          {
                            OFFSET -2.770001 3e-06 8e-06
                            CHANNELS 3 Zrotation Yrotation Xrotation
                          }
                        }
                      }
                    }
                  }
                  JOINT RightHandMiddle1
                  {
                    OFFSET -3.168223 -0.944764 0.411762
                    CHANNELS 3 Zrotation Yrotation Xrotation
                    JOINT RightHandMiddle2
                    {
                      OFFSET -6.266691 -1e-06 -4e-06
                      CHANNELS 3 Zrotation Yrotation Xrotation
                      JOINT RightHandMiddle3
                      {
                        OFFSET -4.348901 0.0 0.0
                        CHANNELS 3 Zrotation Yrotation Xrotation
                        JOINT RightHandMiddle4
                        {
                          OFFSET -3.00024 2e-06 -4e-06
                          CHANNELS 3 Zrotation Yrotation Xrotation
                          JOINT RightHandMiddleEnd
                          {
                            OFFSET -2.321477 -4e-06 -4e-06
                            CHANNELS 3 Zrotation Yrotation Xrotation
                          }
                        }
                      }
                    }
                  }
                  JOINT RightHandRing1
                  {
                    OFFSET -2.885654 0.293261 -0.119232
                    CHANNELS 3 Zrotation Yrotation Xrotation
                    JOINT RightHandRing2
                    {
                      OFFSET -6.032835 -1e-06 -4e-06
                      CHANNELS 3 Zrotation Yrotation Xrotation
                      JOINT RightHandRing3
                      {
                        OFFSET -4.33881 0.0 -4e-06
                        CHANNELS 3 Zrotation Yrotation Xrotation
                        JOINT RightHandRing4
                        {
                          OFFSET -2.654903 -4e-06 -4e-06
                          CHANNELS 3 Zrotation Yrotation Xrotation
                          JOINT RightHandRingEnd
                          {
                            OFFSET -1.935122 0.0 4e-06
                            CHANNELS 3 Zrotation Yrotation Xrotation
                          }
                        }
                      }
                    }
                  }
                  JOINT RightHandPinky1
                  {
                    OFFSET -2.866241 1.503904 -0.60527
                    CHANNELS 3 Zrotation Yrotation Xrotation
                    JOINT RightHandPinky2
                    {
                      OFFSET -5.553177 -2e-06 0.0
                      CHANNELS 3 Zrotation Yrotation Xrotation
                      JOINT RightHandPinky3
                      {
                        OFFSET -3.062664 -1e-06 -4e-06
                        CHANNELS 3 Zrotation Yrotation Xrotation
                        JOINT RightHandPinky4
                        {
                          OFFSET -1.546529 2e-06 4e-06
                          CHANNELS 3 Zrotation Yrotation Xrotation
                          JOINT RightHandPinkyEnd
                          {
                            OFFSET -1.952341 0.0 -4e-06
                            CHANNELS 3 Zrotation Yrotation Xrotation
                          }
                        }
                      }
                    }
                  }
                }
              }
            }
          }
        }
      }
    }
    JOINT LeftLeg
    {
      OFFSET -8.443107 2.567604 10.043214
      CHANNELS 3 Zrotation Yrotation Xrotation
      JOINT LeftShin
      {
        OFFSET 43.229198 1e-06 -1e-06
        CHANNELS 3 Zrotation Yrotation Xrotation
        JOINT LeftFoot
        {
          OFFSET 42.298611 1e-06 1e-06
          CHANNELS 3 Zrotation Yrotation Xrotation
          JOINT LeftToeBase
          {
            OFFSET 14.165858 1e-06 0.0
            CHANNELS 3 Zrotation Yrotation Xrotation
            JOINT LeftToeEnd
            {
              OFFSET 6.7141 -0.234461 0.0
              CHANNELS 3 Zrotation Yrotation Xrotation
            }
          }
        }
      }
    }
    JOINT RightLeg
    {
      OFFSET -8.303923 2.592729 -10.047278
      CHANNELS 3 Zrotation Yrotation Xrotation
      JOINT RightShin
      {
        OFFSET -43.369682 0.0 1e-06
        CHANNELS 3 Zrotation Yrotation Xrotation
        JOINT RightFoot
        {
          OFFSET -42.260784 4e-06 2e-06
          CHANNELS 3 Zrotation Yrotation Xrotation
          JOINT RightToeBase
          {
            OFFSET -14.222245 -2e-06 -1e-06
            CHANNELS 3 Zrotation Yrotation Xrotation
            JOINT RightToeEnd
            {
              OFFSET -6.660062 0.232574 -2e-06
              CHANNELS 3 Zrotation Yrotation Xrotation
            }
          }
        }
      }
    }
  }
}
MOTION
Frames: 4
Frame Time: 0.03333333333333333
0.0 0.0 0.0 0.0 -0.0 0.0 -9.38194 51.138954 212.885406 95.445824 -48.682682 86.479347 14.967196 -0.297719 -0.890023 -5.122893 -0.032342 -1.11106 24.961887 1.192224 -2.713177 17.587839 1.860712 3.159885 -2.486718 -0.631025 0.421896 -28.804394 -4.430695 -0.807165 6e-06 0.0 -0.0 -0.217603 0.162706 -0.041908 0.038441 0.080164 0.05526 0.058043 0.247664 -0.136663 37.906715 -73.712555 -29.679651 56.855251 -13.467381 -46.589733 48.018349 2.312435 0.643814 46.880966 57.299858 46.597324 17.636633 -26.322733 52.411201 -19.466661 -14.395597 29.410393 -0.0 -8.774822 -3e-06 14.793392 -18.619623 6.867387 -0.609776 -1.795653 -3.889329 -4.807089 -11.046811 -2.937851 5e-06 -20.976017 1e-06 -5.019969 -25.03356 -4.031881 6e-06 1e-06 1e-06 -10.634537 -5.68697 -3.565589 10.573275 -17.922953 -3.113901 3e-06 -13.82121 2e-06 -0.501777 -31.181507 -4.027015 -11.656292 -59.683048 7.142175 -13.982716 -7.150198 -2.875043 13.772731 -8.401494 -3.218242 0.347735 -34.211555 0.771656 -0.963028 -17.73337 2.62102 -0.0 -2e-06 -0.0 -17.346422 -20.095217 -4.201782 21.757561 -1.638377 3.86643 2e-06 -6.338823 -0.0 -1.697586 -22.591742 -6.19401 0.0 -4e-06 -3e-06 -148.996826 -72.148705 -26.808268 77.681778 -7.518217 -43.386505 12.297577 -0.174321 -0.053907 48.397202 56.283333 48.768112 22.182108 -20.375895 49.933319 -16.701813 -16.743528 28.476532 -1e-06 -12.6906 1e-06 15.401208 -17.684229 3.004981 -0.10592 -1.513856 -4.27588 -5.03904 -5.612873 -2.953556 4e-06 -11.020523 -1e-06 -6.111297 -15.895334 -3.840471 1e-06 0.0 2e-06 -10.283369 -5.680289 -4.341839 11.028293 -11.302402 -2.372631 -1.384268 -14.238581 -6.320124 -0.625436 -26.924185 -3.827604 -3.72187 -48.741451 -4.453747 -13.708522 -7.363477 -3.72094 18.141146 -14.052736 -3.242674 4e-06 -18.787266 -0.0 -0.429711 -8.45604 2.555503 -1e-06 -0.0 1e-06 -15.923532 -20.094482 -5.473586 30.41921 -7.190823 1.735927 4e-06 -8.162925 -2e-06 -1.861903 -22.861465 -6.167939 -0.0 -2e-06 -2e-06 131.677048 5.690911 2.230718 102.264801 0.853633 0.114449 -52.798508 20.852942 -2.907598 -9.963422 1.22018 1.705474 -0.999997 0.0 -1e-06 -39.727619 -11.124896 -5.700672 101.381294 -2.473962 0.069986 -42.243683 7.552502 -16.739628 -0.774494 0.033045 2.403991 -1.000003 0.0 -1e-06 
0.0 0.0 0.0 0.0 -0.0 0.0 -9.131746 51.379032 214.573212 94.435699 -48.409588 86.752853 15.349813 0.062924 -0.936231 -4.928214 0.023975 -1.467214 25.113594 2.145132 -2.768395 17.015884 1.886834 3.060777 -2.520926 -0.678012 0.915888 -29.242922 -4.531172 -0.089901 4e-06 0.0 -0.0 -0.231628 0.103899 -0.018163 0.06542 0.003238 0.078619 0.065953 0.206144 -0.110093 37.148998 -70.93457 -29.324848 53.941761 -8.217781 -48.441456 40.052643 2.343826 0.328966 39.043438 60.194969 37.299713 17.636625 -26.322729 52.411194 -19.466663 -14.395596 29.410389 -1e-06 -8.774821 -1e-06 14.806139 -18.642221 6.837079 -0.609776 -1.795654 -3.889328 -4.807089 -11.046812 -2.93785 3e-06 -20.976021 -0.0 -5.019969 -25.03356 -4.031884 7e-06 -2e-06 2e-06 -10.634534 -5.686972 -3.565586 10.573272 -17.922951 -3.113902 1e-06 -13.821212 2e-06 -0.501776 -31.181505 -4.02702 -11.73923 -59.383686 7.023697 -13.982713 -7.150199 -2.875041 13.772729 -8.401493 -3.218243 0.347732 -34.211555 0.771652 -0.963029 -17.73337 2.621019 -1e-06 -1e-06 1e-06 -17.346418 -20.095221 -4.201781 21.757555 -1.638374 3.866428 1e-06 -6.338821 1e-06 -1.69759 -22.591747 -6.194008 1e-06 -7e-06 -3e-06 -148.511612 -72.35199 -27.449734 79.006584 -7.342793 -41.3027 11.350422 -0.451903 -0.055716 48.314358 56.595379 49.33807 22.182112 -20.375895 49.933323 -16.701811 -16.74353 28.476528 -1e-06 -12.690601 1e-06 15.569597 -17.770403 2.85907 -0.105919 -1.513855 -4.275883 -5.039041 -5.61287 -2.953557 4e-06 -11.020521 -1e-06 -6.111298 -15.89533 -3.84047 -0.0 1e-06 -0.0 -10.283369 -5.680286 -4.341837 11.028294 -11.302404 -2.372633 -1.384268 -14.238581 -6.320121 -0.625439 -26.924189 -3.8276 -3.793645 -48.93322 -4.396116 -13.708523 -7.363474 -3.720939 18.141146 -14.052736 -3.242674 4e-06 -18.787271 -1e-06 -0.429712 -8.456041 2.555503 -0.0 -0.0 0.0 -15.923536 -20.094481 -5.473585 30.41921 -7.190825 1.735925 4e-06 -8.162924 -2e-06 -1.861903 -22.861467 -6.167941 -1e-06 -2e-06 -1e-06 134.267349 5.330906 2.770501 99.895523 0.830977 0.035657 -53.03941 20.690533 -2.413326 -10.301719 1.184652 1.673216 -0.999998 0.0 -1e-06 -45.425247 -10.448387 -4.638714 108.285912 -1.88334 0.020104 -43.460251 8.402451 -15.940292 -0.935095 0.057899 2.375068 -1.000003 0.0 -1e-06 
0.0 0.0 0.0 0.0 -0.0 0.0 -8.996128 51.356209 216.374207 93.525391 -48.146763 87.225014 15.6236 0.423825 -1.02449 -4.737556 0.035869 -1.944823 25.29475 3.016501 -3.029235 16.314533 2.267789 3.040952 -2.576318 -0.755945 1.321265 -29.572859 -4.733172 0.70194 5e-06 0.0 -0.0 -0.241498 0.065738 -0.006247 0.04175 -0.035188 0.076344 0.043671 0.166508 -0.082523 37.276062 -68.272629 -29.685154 51.133694 -4.027417 -47.537426 29.997778 1.629048 0.067764 27.624186 61.747902 24.628918 17.636631 -26.322731 52.411186 -19.466665 -14.3956 29.410389 -0.0 -8.774824 -3e-06 14.932313 -18.730066 6.731756 -0.609776 -1.795653 -3.889327 -4.80709 -11.046813 -2.93785 5e-06 -20.976021 1e-06 -5.019971 -25.03356 -4.031882 6e-06 -1e-06 1e-06 -10.634536 -5.686971 -3.565586 10.573278 -17.922955 -3.113903 3e-06 -13.821212 1e-06 -0.501775 -31.181511 -4.027017 -11.675283 -59.034966 6.876538 -13.982716 -7.150198 -2.875042 13.772735 -8.401493 -3.218241 0.347736 -34.211559 0.771655 -0.963026 -17.733372 2.621021 -1e-06 -1e-06 0.0 -17.346422 -20.095217 -4.201782 21.757566 -1.638378 3.866428 2e-06 -6.338824 2e-06 -1.697589 -22.591751 -6.194007 -0.0 -6e-06 -3e-06 -148.666138 -72.989471 -27.399759 80.618919 -7.451881 -38.920979 10.707428 -0.876576 -0.064997 48.645828 56.889736 51.00491 22.182121 -20.375898 49.933327 -16.701817 -16.74353 28.476536 -2e-06 -12.690601 0.0 15.897443 -17.831224 2.683932 -0.105919 -1.513856 -4.275883 -5.039042 -5.612873 -2.953556 5e-06 -11.020523 -2e-06 -6.111298 -15.895334 -3.840472 -1e-06 -0.0 -0.0 -10.283371 -5.680288 -4.34184 11.028296 -11.302406 -2.372633 -1.384268 -14.238581 -6.320122 -0.625436 -26.924191 -3.827602 -3.905899 -49.22979 -4.26873 -13.708526 -7.363475 -3.72094 18.141155 -14.052739 -3.242676 6e-06 -18.787271 -1e-06 -0.429711 -8.456041 2.555504 -1e-06 -1e-06 0.0 -15.923536 -20.094482 -5.473586 30.419218 -7.190826 1.735924 4e-06 -8.162925 0.0 -1.861903 -22.861469 -6.16794 -1e-06 -2e-06 -1e-06 136.931168 5.064084 3.24596 97.488235 0.792341 -0.038185 -52.560921 20.2791 -1.782167 -10.566955 1.143944 1.660214 -0.999999 0.0 -0.0 -51.499844 -9.684703 -3.789362 115.084839 -1.269972 0.090294 -43.987083 10.035715 -14.812969 -0.943538 0.115481 2.317388 -1.000005 -0.0 -1e-06 
0.0 0.0 0.0 0.0 -0.0 0.0 -8.989181 51.061638 218.280106 92.743874 -47.896694 87.961403 15.771014 0.79964 -1.162992 -4.569637 0.004234 -2.481225 25.473701 3.825656 -3.447408 15.617764 2.935957 3.099882 -2.614107 -0.912736 1.52106 -29.802681 -4.962295 1.418815 6e-06 0.0 -0.0 -0.241153 0.057848 -0.008825 -0.046823 -0.021824 0.042863 -0.022384 0.134401 -0.054073 37.911572 -66.191452 -30.407743 49.141285 -1.590299 -44.151154 21.171488 0.394031 -0.065387 16.926361 60.942795 13.890633 17.636614 -26.322729 52.411194 -19.466661 -14.395597 29.410395 -0.0 -8.774819 -1e-06 15.140827 -18.803591 6.577283 -0.609776 -1.795653 -3.889328 -4.807088 -11.04681 -2.93785 3e-06 -20.976019 -1e-06 -5.019968 -25.03356 -4.031883 6e-06 0.0 1e-06 -10.634531 -5.686971 -3.565586 10.573272 -17.922947 -3.113904 2e-06 -13.821206 0.0 -0.501775 -31.181501 -4.027019 -11.572786 -58.747646 6.797875 -13.982711 -7.150198 -2.875042 13.772727 -8.401493 -3.218243 0.347734 -34.211552 0.771653 -0.963028 -17.733366 2.621018 -1e-06 -0.0 -0.0 -17.346413 -20.095217 -4.201782 21.757553 -1.638374 3.866425 1e-06 -6.338824 1e-06 -1.697588 -22.591742 -6.194008 -0.0 -5e-06 -0.0 -149.253082 -74.110855 -26.71089 82.136253 -8.069918 -36.279182 10.872662 -1.294314 -0.080851 49.758732 57.005806 53.852837 22.182114 -20.375891 49.933319 -16.701815 -16.743526 28.476534 -3e-06 -12.6906 -0.0 16.226286 -17.815166 2.539835 -0.105919 -1.513858 -4.275882 -5.039042 -5.612872 -2.953557 5e-06 -11.02052 -1e-06 -6.111297 -15.895334 -3.840471 0.0 1e-06 -0.0 -10.283369 -5.680288 -4.341839 11.028294 -11.302404 -2.372633 -1.384268 -14.238578 -6.320122 -0.625435 -26.924189 -3.827602 -4.030203 -49.532192 -4.05812 -13.708523 -7.363477 -3.720939 18.141148 -14.052737 -3.242673 7e-06 -18.78727 -3e-06 -0.429711 -8.456043 2.555504 -0.0 0.0 -0.0 -15.923534 -20.094482 -5.473586 30.41921 -7.190827 1.735923 1e-06 -8.162924 0.0 -1.861899 -22.861469 -6.167944 -1e-06 -4e-06 -1e-06 139.739868 4.803224 3.900167 95.056549 0.761618 -0.078598 -51.875858 19.783142 -1.18117 -10.785654 1.111151 1.648749 -1.0 1e-06 -0.0 -57.615242 -9.05276 -3.372387 121.380234 -0.748192 0.198024 -43.670609 12.098907 -13.73753 -0.679613 0.173679 2.259047 -1.000002 1e-06 -0.0 
